<svg width="24" height="24" viewBox="0 0 24 24" fill="none" xmlns="http://www.w3.org/2000/svg">
<mask id="path-1-inside-1_1976_8087" fill="white">
<path fill-rule="evenodd" clip-rule="evenodd" d="M0 0V24H24V0H0ZM7.5 6.25C5.98122 6.25 4.75 7.48122 4.75 9V10.5V15C4.75 16.5188 5.98122 17.75 7.5 17.75H16.5C18.0188 17.75 19.25 16.5188 19.25 15V10.5V9C19.25 7.48122 18.0188 6.25 16.5 6.25H7.5ZM5.75 15V11H18.25V15C18.25 15.9665 17.4665 16.75 16.5 16.75H7.5C6.5335 16.75 5.75 15.9665 5.75 15ZM5.75 10H18.25V9C18.25 8.0335 17.4665 7.25 16.5 7.25H7.5C6.5335 7.25 5.75 8.0335 5.75 9V10ZM8.25 13.75C7.97386 13.75 7.75 13.9739 7.75 14.25C7.75 14.5261 7.97386 14.75 8.25 14.75H9C9.27614 14.75 9.5 14.5261 9.5 14.25C9.5 13.9739 9.27614 13.75 9 13.75H8.25ZM12 13.75C11.7239 13.75 11.5 13.9739 11.5 14.25C11.5 14.5261 11.7239 14.75 12 14.75H12.75C13.0261 14.75 13.25 14.5261 13.25 14.25C13.25 13.9739 13.0261 13.75 12.75 13.75H12Z"/>
</mask>
<path fill-rule="evenodd" clip-rule="evenodd" d="M0 0V24H24V0H0ZM7.5 6.25C5.98122 6.25 4.75 7.48122 4.75 9V10.5V15C4.75 16.5188 5.98122 17.75 7.5 17.75H16.5C18.0188 17.75 19.25 16.5188 19.25 15V10.5V9C19.25 7.48122 18.0188 6.25 16.5 6.25H7.5ZM5.75 15V11H18.25V15C18.25 15.9665 17.4665 16.75 16.5 16.75H7.5C6.5335 16.75 5.75 15.9665 5.75 15ZM5.75 10H18.25V9C18.25 8.0335 17.4665 7.25 16.5 7.25H7.5C6.5335 7.25 5.75 8.0335 5.75 9V10ZM8.25 13.75C7.97386 13.75 7.75 13.9739 7.75 14.25C7.75 14.5261 7.97386 14.75 8.25 14.75H9C9.27614 14.75 9.5 14.5261 9.5 14.25C9.5 13.9739 9.27614 13.75 9 13.75H8.25ZM12 13.75C11.7239 13.75 11.5 13.9739 11.5 14.25C11.5 14.5261 11.7239 14.75 12 14.75H12.75C13.0261 14.75 13.25 14.5261 13.25 14.25C13.25 13.9739 13.0261 13.75 12.75 13.75H12Z" fill="black"/>
<path d="M0 24H-1V25H0V24ZM0 0V-1H-1V0H0ZM24 24V25H25V24H24ZM24 0H25V-1H24V0ZM5.75 11V10H4.75V11H5.75ZM18.25 11H19.25V10H18.25V11ZM18.25 10V11H19.25V10H18.25ZM5.75 10H4.75V11H5.75V10ZM1 24V0H-1V24H1ZM24 23H0V25H24V23ZM23 0V24H25V0H23ZM0 1H24V-1H0V1ZM5.75 9C5.75 8.0335 6.5335 7.25 7.5 7.25V5.25C5.42893 5.25 3.75 6.92893 3.75 9H5.75ZM5.75 10.5V9H3.75V10.5H5.75ZM5.75 15V10.5H3.75V15H5.75ZM7.5 16.75C6.5335 16.75 5.75 15.9665 5.75 15H3.75C3.75 17.0711 5.42893 18.75 7.5 18.75V16.75ZM16.5 16.75H7.5V18.75H16.5V16.75ZM18.25 15C18.25 15.9665 17.4665 16.75 16.5 16.75V18.75C18.5711 18.75 20.25 17.0711 20.25 15H18.25ZM18.25 10.5V15H20.25V10.5H18.25ZM18.25 9V10.5H20.25V9H18.25ZM16.5 7.25C17.4665 7.25 18.25 8.0335 18.25 9H20.25C20.25 6.92893 18.5711 5.25 16.5 5.25V7.25ZM7.5 7.25H16.5V5.25H7.5V7.25ZM4.75 11V15H6.75V11H4.75ZM18.25 10H5.75V12H18.25V10ZM19.25 15V11H17.25V15H19.25ZM16.5 17.75C18.0188 17.75 19.25 16.5188 19.25 15H17.25C17.25 15.4142 16.9142 15.75 16.5 15.75V17.75ZM7.5 17.75H16.5V15.75H7.5V17.75ZM4.75 15C4.75 16.5188 5.98122 17.75 7.5 17.75V15.75C7.08579 15.75 6.75 15.4142 6.75 15H4.75ZM18.25 9H5.75V11H18.25V9ZM17.25 9V10H19.25V9H17.25ZM16.5 8.25C16.9142 8.25 17.25 8.58579 17.25 9H19.25C19.25 7.48122 18.0188 6.25 16.5 6.25V8.25ZM7.5 8.25H16.5V6.25H7.5V8.25ZM6.75 9C6.75 8.58579 7.08579 8.25 7.5 8.25V6.25C5.98122 6.25 4.75 7.48122 4.75 9H6.75ZM6.75 10V9H4.75V10H6.75ZM8.75 14.25C8.75 14.5261 8.52614 14.75 8.25 14.75V12.75C7.42157 12.75 6.75 13.4216 6.75 14.25H8.75ZM8.25 13.75C8.52614 13.75 8.75 13.9739 8.75 14.25H6.75C6.75 15.0784 7.42157 15.75 8.25 15.75V13.75ZM9 13.75H8.25V15.75H9V13.75ZM8.5 14.25C8.5 13.9739 8.72386 13.75 9 13.75V15.75C9.82843 15.75 10.5 15.0784 10.5 14.25H8.5ZM9 14.75C8.72386 14.75 8.5 14.5261 8.5 14.25H10.5C10.5 13.4216 9.82843 12.75 9 12.75V14.75ZM8.25 14.75H9V12.75H8.25V14.75ZM12.5 14.25C12.5 14.5261 12.2761 14.75 12 14.75V12.75C11.1716 12.75 10.5 13.4216 10.5 14.25H12.5ZM12 13.75C12.2761 13.75 12.5 13.9739 12.5 14.25H10.5C10.5 15.0784 11.1716 15.75 12 15.75V13.75ZM12.75 13.75H12V15.75H12.75V13.75ZM12.25 14.25C12.25 13.9739 12.4739 13.75 12.75 13.75V15.75C13.5784 15.75 14.25 15.0784 14.25 14.25H12.25ZM12.75 14.75C12.4739 14.75 12.25 14.5261 12.25 14.25H14.25C14.25 13.4216 13.5784 12.75 12.75 12.75V14.75ZM12 14.75H12.75V12.75H12V14.75Z" fill="black" mask="url(#path-1-inside-1_1976_8087)"/>
</svg>
