<svg width="19" height="20" viewBox="0 0 19 20" fill="none" xmlns="http://www.w3.org/2000/svg">
<path d="M0.5 1H2.5L2.9 3M4.5 11H14.5L18.5 3H2.9M4.5 11L2.9 3M4.5 11L2.20711 13.2929C1.57714 13.9229 2.02331 15 2.91421 15H14.5M14.5 15C13.3954 15 12.5 15.8954 12.5 17C12.5 18.1046 13.3954 19 14.5 19C15.6046 19 16.5 18.1046 16.5 17C16.5 15.8954 15.6046 15 14.5 15ZM6.5 17C6.5 18.1046 5.60457 19 4.5 19C3.39543 19 2.5 18.1046 2.5 17C2.5 15.8954 3.39543 15 4.5 15C5.60457 15 6.5 15.8954 6.5 17Z" stroke="white" stroke-linecap="round" stroke-linejoin="round"/>
</svg>
