<svg width="14" height="14" viewBox="0 0 14 14" fill="none" xmlns="http://www.w3.org/2000/svg">
<path d="M12.8458 1.48816L13.1993 1.1346V1.1346L12.8458 1.48816ZM3.66732 13.0237V13.5237C3.79993 13.5237 3.9271 13.471 4.02087 13.3772L3.66732 13.0237ZM1.33398 13.0237H0.833984C0.833984 13.2998 1.05784 13.5237 1.33398 13.5237V13.0237ZM1.33398 10.6429L0.980431 10.2894C0.886663 10.3832 0.833984 10.5103 0.833984 10.6429H1.33398ZM10.8423 1.84171C11.2979 1.3861 12.0366 1.3861 12.4922 1.84171L13.1993 1.1346C12.3532 0.288466 10.9814 0.288466 10.1352 1.1346L10.8423 1.84171ZM12.4922 1.84171C12.9478 2.29732 12.9478 3.03601 12.4922 3.49162L13.1993 4.19873C14.0455 3.3526 14.0455 1.98074 13.1993 1.1346L12.4922 1.84171ZM12.4922 3.49162L3.31376 12.6701L4.02087 13.3772L13.1993 4.19873L12.4922 3.49162ZM3.66732 12.5237H1.33398V13.5237H3.66732V12.5237ZM10.1352 1.1346L0.980431 10.2894L1.68754 10.9965L10.8423 1.84171L10.1352 1.1346ZM0.833984 10.6429V13.0237H1.83398V10.6429H0.833984ZM9.13522 2.84171L11.4922 5.19873L12.1993 4.49162L9.84232 2.1346L9.13522 2.84171Z" fill="#303030"/>
</svg>
