<svg width="20" height="16" viewBox="0 0 20 16" fill="none" xmlns="http://www.w3.org/2000/svg">
<path d="M15.25 5V3C15.25 1.89543 14.3546 1 13.25 1H3.25C2.14543 1 1.25 1.89543 1.25 3V9C1.25 10.1046 2.14543 11 3.25 11H5.25M7.25 15H17.25C18.3546 15 19.25 14.1046 19.25 13V7C19.25 5.89543 18.3546 5 17.25 5H7.25C6.14543 5 5.25 5.89543 5.25 7V13C5.25 14.1046 6.14543 15 7.25 15ZM14.25 10C14.25 11.1046 13.3546 12 12.25 12C11.1454 12 10.25 11.1046 10.25 10C10.25 8.89543 11.1454 8 12.25 8C13.3546 8 14.25 8.89543 14.25 10Z" stroke="#F5F5F5" stroke-linecap="round" stroke-linejoin="round"/>
</svg>
